<svg xmlns="http://www.w3.org/2000/svg" width="33" height="32" viewBox="0 0 33 32" fill="none">
    <path d="M32.0189 16.001C32.0189 24.0821 26.0305 30.7628 18.2512 31.8469C17.5238 31.9478 16.7796 32.0005 16.0242 32.0005C15.1522 32.0005 14.2959 31.931 13.4621 31.7964C5.8452 30.5699 0.0283203 23.9643 0.0283203 16.001C0.0283203 7.16442 7.19014 0.000488281 16.0231 0.000488281C24.856 0.000488281 32.0189 7.16442 32.0189 16.001Z" fill="#1877F2"/>
    <path d="M18.2511 12.8474V16.333H22.5617L21.8791 21.0282H18.2511V31.8459C17.5237 31.9468 16.7795 31.9995 16.0241 31.9995C15.1521 31.9995 14.2959 31.9299 13.462 31.7954V21.0282H9.48657V16.333H13.462V12.0683C13.462 9.42243 15.6061 7.27661 18.2522 7.27661V7.27885C18.2601 7.27885 18.2668 7.27661 18.2747 7.27661H22.5628V11.3373H19.7608C18.9281 11.3373 18.2522 12.0133 18.2522 12.8463L18.2511 12.8474Z" fill="white"/>
</svg>