<svg xmlns="http://www.w3.org/2000/svg" width="32" height="32" viewBox="0 0 32 32" fill="none">
    <path d="M16.0505 0.000488281H15.9777C7.16383 0.000488281 0.0187988 7.14762 0.0187988 15.9641V16.0369C0.0187988 24.8534 7.16383 32.0005 15.9777 32.0005H16.0505C24.8643 32.0005 32.0094 24.8534 32.0094 16.0369V15.9641C32.0094 7.14762 24.8643 0.000488281 16.0505 0.000488281Z" fill="url(#paint0_linear_3014_646)"/>
    <path d="M20.964 6.51086H11.0652C8.33047 6.51086 6.10571 8.73628 6.10571 11.4718V20.5304C6.10571 23.2659 8.33047 25.4913 11.0652 25.4913H20.964C23.6987 25.4913 25.9234 23.2659 25.9234 20.5304V11.4718C25.9234 8.73628 23.6987 6.51086 20.964 6.51086ZM7.85526 11.4718C7.85526 9.70156 9.29547 8.26093 11.0652 8.26093H20.964C22.7337 8.26093 24.1739 9.70156 24.1739 11.4718V20.5304C24.1739 22.3007 22.7337 23.7413 20.964 23.7413H11.0652C9.29547 23.7413 7.85526 22.3007 7.85526 20.5304V11.4718Z" fill="white"/>
    <path d="M16.0145 20.6144C18.5576 20.6144 20.6277 18.5448 20.6277 15.9999C20.6277 13.455 18.5587 11.3854 16.0145 11.3854C13.4703 11.3854 11.4014 13.455 11.4014 15.9999C11.4014 18.5448 13.4703 20.6144 16.0145 20.6144ZM16.0145 13.1366C17.5937 13.1366 18.8781 14.4214 18.8781 16.001C18.8781 17.5807 17.5937 18.8655 16.0145 18.8655C14.4353 18.8655 13.1509 17.5807 13.1509 16.001C13.1509 14.4214 14.4353 13.1366 16.0145 13.1366Z" fill="white"/>
    <path d="M21.0547 12.131C21.7395 12.131 22.2977 11.5738 22.2977 10.8877C22.2977 10.2016 21.7406 9.64441 21.0547 9.64441C20.3688 9.64441 19.8118 10.2016 19.8118 10.8877C19.8118 11.5738 20.3688 12.131 21.0547 12.131Z" fill="white"/>
    <defs>
    <linearGradient id="paint0_linear_3014_646" x1="4.69247" y1="27.3254" x2="27.3424" y2="4.68333" gradientUnits="userSpaceOnUse">
    <stop stop-color="#FAAD4F"/>
    <stop offset="0.35" stop-color="#DD2A7B"/>
    <stop offset="0.62" stop-color="#9537B0"/>
    <stop offset="1" stop-color="#515BD4"/>
    </linearGradient>
    </defs>
</svg>