<svg xmlns="http://www.w3.org/2000/svg" width="32" height="32" viewBox="0 0 32 32" fill="none">
    <path d="M16.0412 0.000488281H15.9684C7.15455 0.000488281 0.00952148 7.14762 0.00952148 15.9641V16.0369C0.00952148 24.8534 7.15455 32.0005 15.9684 32.0005H16.0412C24.8551 32.0005 32.0001 24.8534 32.0001 16.0369V15.9641C32.0001 7.14762 24.8551 0.000488281 16.0412 0.000488281Z" fill="black"/>
    <path d="M24.1154 12.7095V15.7309C23.5875 15.6793 22.9016 15.5594 22.1428 15.2813C21.1521 14.9181 20.4146 14.4215 19.9315 14.0369V20.1436L19.9192 20.1246C19.927 20.2456 19.9315 20.369 19.9315 20.4934C19.9315 23.526 17.4647 25.9947 14.4318 25.9947C11.399 25.9947 8.93213 23.526 8.93213 20.4934C8.93213 17.4608 11.399 14.991 14.4318 14.991C14.7288 14.991 15.0202 15.0145 15.3049 15.0605V18.0382C15.0314 17.9406 14.7378 17.8879 14.4318 17.8879C12.9961 17.8879 11.8271 19.0561 11.8271 20.4934C11.8271 21.9307 12.9961 23.0989 14.4318 23.0989C15.8675 23.0989 17.0365 21.9296 17.0365 20.4934C17.0365 20.4396 17.0354 20.3858 17.032 20.332V8.46497H20.0503C20.0615 8.72058 20.0716 8.97844 20.0828 9.23405C20.103 9.73743 20.2823 10.2206 20.595 10.6164C20.9615 11.0816 21.5029 11.622 22.2627 12.0537C22.9744 12.4573 23.6424 12.6299 24.1154 12.7118V12.7095Z" fill="#FF004F"/>
    <path d="M23.0776 10.2564V13.2778C22.5497 13.2263 21.8638 13.1063 21.105 12.8283C20.1142 12.465 19.3767 11.9684 18.8937 11.5838V17.6905L18.8813 17.6715C18.8892 17.7926 18.8937 17.9159 18.8937 18.0403C18.8937 21.073 16.4268 23.5416 13.394 23.5416C10.3611 23.5416 7.89429 21.073 7.89429 18.0403C7.89429 15.0077 10.3611 12.5379 13.394 12.5379C13.691 12.5379 13.9824 12.5614 14.2671 12.6074V15.5851C13.9936 15.4876 13.7 15.4349 13.394 15.4349C11.9583 15.4349 10.7893 16.6031 10.7893 18.0403C10.7893 19.4776 11.9583 20.6458 13.394 20.6458C14.8297 20.6458 15.9987 19.4765 15.9987 18.0403C15.9987 17.9865 15.9976 17.9327 15.9942 17.8789V6.00964H19.0125C19.0237 6.26526 19.0338 6.52311 19.045 6.77873C19.0652 7.28211 19.2445 7.76531 19.5572 8.16106C19.9237 8.62633 20.465 9.16671 21.2249 9.59833C21.9366 10.0008 22.6046 10.1746 23.0776 10.2564Z" fill="#00F7EF"/>
    <path d="M23.7377 11.5771V14.5985C23.2098 14.5469 22.5239 14.4269 21.7651 14.1489C20.7744 13.7857 20.0369 13.289 19.5538 12.9045V19.0112L19.5415 18.9921C19.5494 19.1132 19.5538 19.2365 19.5538 19.361C19.5538 22.3936 17.087 24.8623 14.0541 24.8623C11.0213 24.8623 8.55444 22.3936 8.55444 19.361C8.55444 16.3284 11.0213 13.8585 14.0541 13.8585C14.3511 13.8585 14.6426 13.8821 14.9272 13.928V16.9057C14.6538 16.8082 14.3601 16.7555 14.0541 16.7555C12.6184 16.7555 11.4494 17.9237 11.4494 19.361C11.4494 20.7982 12.6184 21.9664 14.0541 21.9664C15.4899 21.9664 16.6588 20.7971 16.6588 19.361C16.6588 19.3072 16.6577 19.2533 16.6544 19.1995V7.33252H19.6726C19.6838 7.58813 19.6939 7.84599 19.7051 8.1016C19.7253 8.60499 19.9046 9.08819 20.2173 9.48394C20.5838 9.9492 21.1252 10.4896 21.8851 10.9212C22.5968 11.3237 23.2648 11.4975 23.7377 11.5793V11.5771Z" fill="white"/>
</svg>